# xmcd
#
# Track frame offsets: 
#        183
#        18223
#        33133
#
# Disc length: 651 seconds
#
# Revision: 0
# Processed by: cddbd v1.5.2PL0 Copyright (c) Steve Scherf et al.
# Submitted via: ExactAudioCopy v0.99pb4
#
DISCID=13028903
DTITLE=Middle Of The Road - One More Night
DYEAR=1900
DGENRE=Country
TTITLE0=One More Night
TTITLE1=Soley Soley
TTITLE2=The Feelin's Right
EXTD=
EXTT0=
EXTT1=
EXTT2=
PLAYORDER=
